<?xml version="1.0" encoding="utf-8"?>
<!-- Generator: Adobe Illustrator 28.2.0, SVG Export Plug-In . SVG Version: 6.00 Build 0)  -->
<svg version="1.1" id="Layer_1" xmlns="http://www.w3.org/2000/svg" xmlns:xlink="http://www.w3.org/1999/xlink" x="0px" y="0px"
	 viewBox="0 0 1000 1000" style="enable-background:new 0 0 1000 1000;" xml:space="preserve">
<style type="text/css">
	.st0{fill:#F55700;}
	.st1{fill:#59574A;}
</style>
<g>
	<path class="st0" d="M527.2,67.7c42.5,23.6,79.3,43.9,116,64.3c37.6,20.8,75,41.9,112.7,62.4c19.7,10.7,24.7,7.5,25.2-15
		c0.3-13.3,0-26.7,0.2-40c0.2-14.4,7.9-21.7,22-22.5c6.6-0.4,13.3-0.6,20-0.3c27.2,0.9,31,4.7,31.4,31.3c0.4,23,1.3,46-0.1,68.9
		c-0.7,11.8,1,21.3,6.5,28.3c2.4,3,4.7,4.4,19.5,11.5c24.6,11.7,30.3,13.4,34.9,20c5.2,7.4,5.4,15.5,5.4,20.1
		c-0.3,71.1,0.7,142.3-0.8,213.4c-0.3,12.8-7.6,26.9-15.4,37.8c-8.8,12.2-9.7,19.6-0.7,32.8c8.9,13.2,15.9,30.6,16.2,46.4
		c1.5,89.6,0.8,179.3,0.7,269c0,29.5-7.3,37.3-36.4,37.4c-111.2,0.3-222.3-0.1-333.5,0.5c-18.3,0.1-25.2-6.4-24.2-24.7
		c1.2-21.4,0.2-43,0.4-64.5c0.3-27.2,7.9-35.5,35.9-36.1c37-0.8,74.1-0.3,111.2-0.3c28.9,0,57.8-0.6,86.7-0.1
		c22.2,0.4,34.2-11.1,34.8-31.7c1.3-39.9,1.8-80-0.1-119.9c-1.1-24.2-13.7-33.6-38.1-33.8c-63.7-0.4-127.5-0.2-191.2-0.2
		c-31.9,0-39-7.1-39.3-39.1c-0.1-20.7,0.7-41.5-0.2-62.2c-0.7-16.5,5.9-22,22.2-21.8c64.5,0.6,128.9,0.2,193.4,0.2
		c43.3-0.1,54.3-10.6,54.8-53.3c0.3-22.2-0.7-44.5,0.3-66.7c0.9-21-7.1-34.2-26.2-44.1C697.7,297.4,625,257.5,551.6,219
		c-17.1-9-25-21.1-24.6-40.6C527.8,143.7,527.2,109.1,527.2,67.7z"/>
	<path class="st1" d="M475.2,65.4c0,44,1.8,82.6-1.1,120.8c-0.8,11-12.7,25.1-23.3,31c-71.9,39.8-144.6,78.4-217.6,116
		c-19.7,10.1-29,23.1-28,45.3c1.1,25.2-0.4,50.4,0.5,75.6c1.1,32,12.1,42.2,43.7,42.3c67.4,0.2,134.9,0.7,202.3-0.1
		c18.4-0.2,25.2,5.7,24.1,24.2c-1.3,22.2,0,44.5-0.3,66.7c-0.4,25.4-9.5,34.8-35,35c-61.5,0.3-123,0.2-184.5,0.2
		c-41.8,0.1-50.2,8.3-50.4,51.1c-0.3,79.3-0.6,158.6,0.2,237.9c0.2,17.4-4.9,23.8-22.5,23.1c-27.4-1.1-54.8-0.8-82.3-0.1
		c-15.4,0.4-21.7-6.7-21.8-21.1c-0.1-10.4-0.1-20.8-0.1-31.1c0-192.7,0.2-385.4-0.2-578.1c0-19.5,4.3-33.1,23.5-43
		C213.6,203.6,324,144.8,434.7,86.5C446.9,80.1,459.1,73.8,475.2,65.4z"/>
</g>
</svg>
